<?xml version="1.0" standalone="no"?>
<!DOCTYPE svg PUBLIC "-//W3C//DTD SVG 20010904//EN"
 "http://www.w3.org/TR/2001/REC-SVG-20010904/DTD/svg10.dtd">
<svg version="1.0" xmlns="http://www.w3.org/2000/svg"
 width="600.000000pt" height="600.000000pt" viewBox="0 0 600.000000 600.000000"
 preserveAspectRatio="xMidYMid meet">

<g transform="translate(0.000000,600.000000) scale(0.100000,-0.100000)"
fill="#000000" stroke="none">
<path d="M2852 5399 c-199 -33 -345 -222 -329 -426 13 -172 131 -312 302 -358
177 -48 374 43 457 212 41 84 51 208 23 298 -59 187 -256 307 -453 274z m239
-46 c80 -39 150 -111 187 -191 24 -50 27 -69 27 -157 0 -91 -3 -106 -31 -165
-75 -159 -248 -251 -415 -221 -255 44 -399 315 -291 545 72 154 194 229 367
224 79 -3 99 -7 156 -35z"/>
<path d="M2834 5262 c-192 -68 -248 -306 -105 -450 140 -142 375 -91 452 98
23 58 17 156 -14 217 -27 51 -88 109 -141 131 -51 22 -136 24 -192 4z m205
-21 c57 -30 119 -105 137 -169 50 -172 -94 -346 -274 -329 -141 12 -241 122
-242 263 0 110 76 216 180 249 57 19 147 12 199 -14z"/>
<path d="M2910 5250 c0 -5 5 -10 10 -10 6 0 10 5 10 10 0 6 -4 10 -10 10 -5 0
-10 -4 -10 -10z"/>
<path d="M2824 5236 c-52 -23 -110 -83 -134 -138 -24 -56 -24 -131 -1 -192 18
-46 22 -25 5 24 -44 126 34 271 164 306 30 8 38 13 22 13 -14 0 -39 -6 -56
-13z"/>
<path d="M2998 5231 c100 -35 162 -121 162 -227 -1 -111 -66 -200 -169 -230
-91 -27 -169 -7 -245 65 -29 27 -36 30 -27 13 15 -28 92 -78 141 -92 49 -14
89 -12 141 5 164 56 222 250 118 396 -25 36 -115 89 -149 89 -17 -1 -8 -7 28
-19z"/>
<path d="M2830 5188 c-59 -31 -98 -82 -112 -150 -10 -48 -9 -62 6 -101 34 -91
140 -156 226 -141 155 28 226 188 144 321 -54 88 -170 119 -264 71z m180 -10
c95 -48 135 -167 88 -257 -37 -71 -86 -104 -162 -109 -98 -6 -155 29 -196 121
-72 162 110 326 270 245z"/>
<path d="M2765 5009 c-10 -15 3 -25 16 -12 7 7 7 13 1 17 -6 3 -14 1 -17 -5z"/>
<path d="M2785 4940 c-4 -6 -3 -16 3 -22 6 -6 12 -6 17 2 4 6 3 16 -3 22 -6 6
-12 6 -17 -2z"/>
<path d="M2830 4875 c0 -10 7 -15 18 -13 21 4 19 22 -2 26 -10 2 -16 -3 -16
-13z"/>
<path d="M2903 4864 c-9 -23 13 -40 32 -24 12 10 13 16 4 26 -15 18 -28 18
-36 -2z m27 -10 c0 -8 -4 -12 -10 -9 -5 3 -10 10 -10 16 0 5 5 9 10 9 6 0 10
-7 10 -16z"/>
<path d="M3065 4220 c-14 -27 -23 -50 -20 -50 2 0 16 23 30 50 14 28 23 50 20
50 -2 0 -16 -22 -30 -50z"/>
<path d="M2500 4241 c-16 -32 4 -63 38 -59 24 3 27 7 27 38 0 31 -3 35 -27 38
-19 2 -30 -3 -38 -17z m35 -11 c-20 -22 -31 -20 -22 5 4 8 14 15 23 15 16 0
16 -2 -1 -20z m22 -25 c-4 -8 -14 -15 -23 -15 -16 0 -16 2 1 20 20 22 31 20
22 -5z"/>
<path d="M2668 4253 c6 -2 9 -9 6 -15 -3 -5 2 -15 12 -23 18 -13 18 -14 -6
-24 -25 -10 -25 -10 -2 -10 26 -1 40 25 24 41 -8 8 -9 15 -1 25 9 10 5 13 -17
12 -16 0 -23 -3 -16 -6z"/>
<path d="M2762 4221 c-1 -37 2 -41 24 -41 23 0 25 3 22 38 -2 29 -8 38 -24 40
-19 3 -22 -2 -22 -37z m38 19 c0 -5 -7 -10 -15 -10 -8 0 -15 5 -15 10 0 6 7
10 15 10 8 0 15 -4 15 -10z m0 -41 c0 -5 -7 -9 -15 -9 -15 0 -20 12 -9 23 8 8
24 -1 24 -14z"/>
<path d="M3156 4252 c-2 -4 -1 -23 4 -42 l8 -35 1 43 c1 41 -3 50 -13 34z"/>
<path d="M3240 4240 c0 -11 7 -20 15 -20 21 0 19 -27 -2 -34 -11 -3 -8 -4 7
-3 32 3 40 36 11 44 -26 7 -27 20 -3 26 13 4 11 5 -5 6 -17 1 -23 -5 -23 -19z"/>
<path d="M3300 4250 c0 -5 9 -10 20 -10 11 0 20 5 20 10 0 6 -9 10 -20 10 -11
0 -20 -4 -20 -10z"/>
<path d="M2857 4226 c-8 -19 17 -50 34 -43 10 4 9 6 -3 6 -11 1 -18 9 -18 20
0 11 8 22 18 24 13 4 12 5 -4 6 -12 0 -24 -5 -27 -13z"/>
<path d="M2921 4208 c1 -30 2 -30 8 -9 10 36 31 38 32 4 0 -15 3 -21 6 -13 14
43 16 44 23 15 l8 -30 1 33 c1 31 0 32 -39 32 -39 0 -40 -1 -39 -32z"/>
<path d="M3200 4180 c0 -5 5 -10 10 -10 6 0 10 5 10 10 0 6 -4 10 -10 10 -5 0
-10 -4 -10 -10z"/>
<path d="M2560 3736 c-15 -20 -9 -56 12 -70 13 -8 22 -6 37 8 25 23 26 39 5
60 -19 20 -38 20 -54 2z m46 -22 c4 -17 2 -29 -7 -35 -19 -12 -22 -4 -8 23 12
23 12 23 -10 4 -21 -19 -21 -19 -21 1 0 41 36 46 46 7z"/>
<path d="M2717 3743 c-14 -13 -7 -31 14 -36 26 -7 19 -33 -7 -29 -14 3 -16 1
-8 -7 15 -16 44 -3 44 20 0 10 -8 23 -17 28 -16 9 -16 12 -3 21 13 8 13 10 -1
10 -9 0 -19 -3 -22 -7z"/>
<path d="M2827 3743 c-6 -11 4 -73 12 -73 8 0 7 67 -1 76 -3 3 -8 2 -11 -3z"/>
<path d="M3115 3710 c-25 -56 -14 -60 13 -5 12 25 18 45 13 45 -4 0 -16 -18
-26 -40z"/>
<path d="M3184 3739 c-4 -8 0 -9 15 -4 25 8 28 -11 6 -41 -21 -27 -19 -34 11
-34 14 0 23 4 19 10 -4 6 -11 8 -16 5 -15 -10 -10 7 7 26 9 10 14 25 11 34 -7
17 -43 20 -53 4z"/>
<path d="M2911 3716 c-9 -11 -10 -20 -1 -35 11 -21 40 -29 40 -11 0 6 -7 10
-16 10 -10 0 -14 7 -12 18 2 9 10 16 16 15 7 -2 12 2 12 7 0 15 -26 12 -39 -4z"/>
<path d="M2971 3695 c1 -27 2 -27 7 -7 8 26 27 26 26 0 0 -10 3 -18 8 -18 4 0
8 9 8 19 0 31 18 34 23 4 4 -28 4 -28 6 3 1 29 -1 31 -39 30 -38 0 -40 -2 -39
-31z"/>
<path d="M2781 3664 c0 -11 3 -14 6 -6 3 7 2 16 -1 19 -3 4 -6 -2 -5 -13z"/>
<path d="M2722 3318 c-7 -7 -12 -22 -12 -35 0 -19 -5 -23 -30 -23 l-29 0 -3
-304 -3 -305 -42 -59 c-84 -119 -78 -61 -81 -755 -3 -615 -3 -618 18 -648 42
-58 50 -59 390 -59 l311 0 40 37 40 38 0 607 c0 426 -3 620 -11 650 -7 24 -33
75 -58 113 l-47 70 -5 305 -5 305 -32 3 c-28 3 -32 7 -35 35 l-3 32 -195 3
c-144 2 -199 -1 -208 -10z m393 -28 l0 -25 -193 -3 c-165 -2 -193 0 -198 13
-4 8 -4 22 0 30 5 13 33 15 198 13 l193 -3 0 -25z m75 -350 l5 -305 43 -59
c64 -90 72 -128 72 -358 l0 -198 -391 0 -390 0 3 213 c3 196 5 216 26 262 13
28 37 67 53 88 17 21 35 52 40 70 5 17 9 159 9 315 l0 282 263 -2 262 -3 5
-305z m120 -1330 c0 -418 -1 -424 -60 -455 -24 -12 -81 -15 -335 -15 l-305 0
-38 34 -37 34 -3 391 -3 391 391 0 390 0 0 -380z"/>
<path d="M3664 2665 c4 -24 16 -30 16 -7 0 12 -4 22 -9 22 -5 0 -8 -7 -7 -15z"/>
<path d="M3670 2592 c0 -9 6 -12 16 -8 9 3 24 6 35 6 10 0 19 4 19 9 0 5 -16
9 -35 8 -23 -1 -35 -6 -35 -15z"/>
<path d="M3730 2550 c0 -5 7 -10 16 -10 8 0 12 5 9 10 -3 6 -10 10 -16 10 -5
0 -9 -4 -9 -10z"/>
<path d="M3663 2512 c-7 -17 5 -28 38 -36 30 -7 53 12 43 37 -7 19 -74 19 -81
-1z m67 -7 c0 -8 -4 -15 -10 -15 -5 0 -10 7 -10 15 0 8 5 15 10 15 6 0 10 -7
10 -15z m-40 -5 c0 -5 -4 -10 -10 -10 -5 0 -10 5 -10 10 0 6 5 10 10 10 6 0
10 -4 10 -10z"/>
<path d="M3660 2432 c0 -4 20 -18 45 -30 25 -12 45 -18 45 -14 0 4 -20 18 -45
30 -25 12 -45 18 -45 14z"/>
<path d="M3682 2300 c-1 -40 -1 -40 36 -39 27 1 31 3 12 6 -37 7 -49 23 -17
23 15 0 27 5 27 10 0 6 -9 10 -19 10 -31 0 -34 18 -4 23 27 4 27 4 -3 6 -30 1
-32 -1 -32 -39z"/>
<path d="M3682 2224 c6 -30 35 -41 55 -21 13 13 15 20 5 29 -9 9 -12 8 -12 -6
0 -11 -6 -16 -17 -14 -10 2 -17 10 -15 16 1 7 -3 12 -9 12 -6 0 -9 -7 -7 -16z"/>
<path d="M3661 2113 c2 -24 2 -25 6 -5 5 26 6 26 43 7 17 -9 30 -12 30 -7 0
10 -45 32 -65 32 -10 0 -15 -9 -14 -27z"/>
<path d="M3738 2073 c7 -3 16 -2 19 1 4 3 -2 6 -13 5 -11 0 -14 -3 -6 -6z"/>
<path d="M3670 2035 c-16 -20 3 -45 35 -45 12 0 28 7 35 15 16 20 -3 45 -35
45 -12 0 -28 -7 -35 -15z m55 -15 c0 -18 -25 -24 -45 -10 -13 9 -13 11 0 20
20 14 45 8 45 -10z"/>
<path d="M3672 1968 c-15 -15 -15 -35 0 -44 8 -5 9 -2 5 9 -10 27 13 31 39 6
13 -12 24 -21 25 -18 0 2 2 14 5 27 2 12 -1 22 -7 22 -5 0 -7 -4 -4 -10 9 -14
-2 -12 -28 5 -18 11 -26 12 -35 3z"/>
<path d="M3664 1833 c4 -5 13 -8 19 -8 23 0 19 -33 -5 -38 -13 -2 -3 -4 22 -4
25 -1 37 1 28 4 -22 5 -24 33 -3 33 8 0 15 5 15 10 0 6 -19 10 -42 10 -23 0
-38 -3 -34 -7z"/>
<path d="M2562 778 c-30 -30 -2 -86 37 -73 29 9 36 42 15 66 -20 22 -35 24
-52 7z m44 -24 c7 -25 -9 -54 -23 -41 -4 4 -1 13 5 19 20 20 13 32 -8 13 -16
-14 -20 -15 -20 -4 0 16 19 39 32 39 4 0 11 -12 14 -26z"/>
<path d="M2723 783 c20 -5 21 -16 6 -44 -6 -11 -8 -25 -6 -32 4 -11 37 55 37
74 0 5 -12 8 -27 8 -17 -1 -21 -3 -10 -6z"/>
<path d="M2816 774 c-8 -22 -9 -21 15 -27 25 -7 20 -33 -6 -30 -12 1 -14 -2
-7 -9 14 -14 42 -2 42 18 0 9 -8 23 -17 30 -11 8 -13 13 -5 14 17 0 15 20 -2
20 -8 0 -17 -7 -20 -16z"/>
<path d="M3117 746 c-14 -26 -23 -46 -19 -46 9 0 54 82 48 87 -2 2 -15 -16
-29 -41z"/>
<path d="M3190 779 c0 -5 5 -7 12 -3 8 5 9 2 5 -9 -4 -10 0 -20 10 -25 20 -12
7 -36 -16 -27 -12 5 -13 3 -4 -6 6 -6 19 -9 27 -6 18 7 22 47 5 47 -6 0 -8 9
-4 20 5 16 2 20 -14 20 -12 0 -21 -5 -21 -11z"/>
<path d="M3281 774 c0 -11 3 -14 6 -6 3 7 2 16 -1 19 -3 4 -6 -2 -5 -13z"/>
<path d="M2922 761 c-19 -12 -11 -55 11 -59 9 -2 17 1 17 7 0 6 -5 10 -12 9
-6 -2 -14 5 -16 15 -2 10 2 17 12 17 9 0 16 5 16 10 0 12 -10 13 -28 1z"/>
<path d="M2983 763 c-7 -3 -13 -19 -12 -36 1 -29 2 -30 8 -8 9 35 29 37 34 4
l4 -28 2 28 c1 31 21 38 21 7 0 -11 5 -20 10 -20 12 0 13 30 2 45 -7 11 -48
15 -69 8z"/>
<path d="M2781 704 c0 -11 3 -14 6 -6 3 7 2 16 -1 19 -3 4 -6 -2 -5 -13z"/>
</g>
</svg>
